<svg xmlns="http://www.w3.org/2000/svg" xmlns:xlink="http://www.w3.org/1999/xlink" width="25" height="25" viewBox="0 0 25 25"><defs><clipPath id="a"><path d="M249.813.345C111.417.345-.78 112.542-.78 250.937c0 138.394 112.198 250.59 250.593 250.59 138.394 0 250.59-112.196 250.59-250.59C500.404 112.542 388.208.345 249.814.345z" fill="#fff" stroke="#000" stroke-width=".946"/></clipPath></defs><g clip-path="url(#a)" stroke="#000" stroke-width=".39" transform="matrix(.04994 0 0 .04984 .01 -.017)"><path d="M0 0h750v500H0z" fill="#c60b1e"/><path d="M0 125h750v250H0z" fill="#ffc400"/><g stroke-width=".26"><path d="M167.99 222.24s-.51 0-.79-.16-1.13-.96-1.13-.96l-.68-.49-.62-.85s-.73-1.18-.4-2.09c.34-.91.91-1.23 1.42-1.5.51-.26 1.58-.59 1.58-.59s.85-.37 1.13-.42c.28-.06 1.3-.32 1.3-.32s.28-.16.56-.27c.29-.11.68-.11.91-.16.22-.06.79-.24 1.13-.26.52-.02 1.36.1 1.64.1.28 0 1.24.05 1.64.05.39 0 1.8-.11 2.2-.11.39 0 .68-.05 1.13 0 .45.06 1.24.32 1.47.43.23.11 1.58.59 2.09.75.51.16 1.75.37 2.32.64.56.27.91.72 1.19 1.1.28.37.34.78.45 1.05.11.26.11.84 0 1.11-.11.26-.51.81-.51.81l-.62 1.02-.79.64s-.57.54-1.02.48c-.45-.04-5.03-.86-7.97-.86-2.94 0-7.64.86-7.64.86h.01z" fill="#ad1519" stroke-linejoin="round"/><g id="b" fill="#c8b100"><path d="M168.58 224.25c-.2-.57-.58-1.08-.58-1.08 1.95-.57 4.66-.93 7.67-.94 3.01.01 5.75.37 7.69.94 0 0-.22.38-.52.91-.17.3-.39.81-.38.81-1.75-.54-4.02-.81-6.8-.82-2.79.01-5.46.35-6.86.86.02 0-.1-.32-.23-.68h.01"/><path d="M175.67 226.73c2.43-.01 5.11-.38 6.1-.63.66-.2 1.05-.49.98-.84-.04-.16-.18-.3-.37-.38-1.46-.47-4.07-.8-6.71-.8-2.63 0-5.27.33-6.72.8-.19.08-.33.22-.37.38-.07.35.32.64.98.84.99.25 3.68.62 6.11.63zM183.48 222.08l-.59-.53s-.57.34-1.28.24c-.7-.11-.93-.97-.93-.97s-.79.67-1.44.62c-.65-.06-1.07-.62-1.07-.62s-.71.51-1.33.46c-.62-.06-1.21-.83-1.21-.83s-.63.8-1.25.86c-.62.05-1.13-.54-1.13-.54s-.28.59-1.07.72-1.47-.62-1.47-.62-.45.73-.99.92c-.54.18-1.24-.27-1.24-.27s-.12.27-.2.43c-.08.16-.31.19-.31.19l.18.47c1.93-.56 4.56-.91 7.53-.91 2.97 0 5.67.35 7.61.92l.2-.54h-.01z"/><path d="M175.69 219.49l.28.05c-.05.12-.06.24-.06.38 0 .58.5 1.05 1.12 1.05.49 0 .91-.31 1.06-.73.01.01.11-.38.15-.38.03 0 .03.41.05.41.07.53.55.89 1.1.89.62 0 1.11-.47 1.11-1.06 0-.04 0-.08-.01-.12l.35-.35.19.44c-.07.14-.1.29-.1.46 0 .56.47 1.01 1.06 1.01.37 0 .69-.18.88-.45l.23-.29v.36c0 .34.14.66.49.71 0 0 .38.03.91-.38.52-.41.8-.75.8-.75l.03.42s-.51.84-.97 1.1c-.25.15-.64.31-.95.25-.32-.05-.55-.31-.67-.61-.23.14-.51.22-.8.22-.63 0-1.2-.35-1.42-.86-.29.31-.69.5-1.16.5-.51 0-.97-.23-1.26-.58-.28.27-.67.43-1.09.43-.55 0-1.05-.28-1.33-.69-.29.41-.78.69-1.34.69-.42 0-.81-.16-1.09-.43-.29.35-.75.58-1.25.58-.48 0-.88-.19-1.17-.5-.22.51-.79.86-1.42.86-.29 0-.56-.08-.79-.22-.12.3-.35.56-.68.61-.3.06-.69-.1-.94-.25-.47-.26-1.02-1.1-1.02-1.1l.07-.42s.29.34.81.75.91.38.91.38c.34-.05.49-.37.49-.71v-.36l.22.29c.19.27.51.45.88.45.59 0 1.06-.45 1.06-1.01 0-.17-.02-.32-.1-.46l.19-.44.35.35c-.01.04-.01.08-.01.12 0 .59.49 1.06 1.11 1.06.55 0 1.03-.36 1.11-.89.01 0 .01-.41.04-.41.05 0 .14.39.16.38.14.42.56.73 1.06.73.61 0 1.11-.47 1.11-1.05 0-.14 0-.26-.05-.38l.29-.05h.01z"/><path d="M175.67 222.23c-3.01.01-5.72.37-7.67.94-.13.04-.29-.06-.33-.17-.04-.13.05-.28.18-.32 1.95-.6 4.73-.98 7.82-.98s5.88.38 7.83.98c.13.04.22.19.18.32-.04.11-.2.21-.33.17-1.95-.57-4.67-.93-7.68-.94z" stroke-linejoin="round"/></g></g><g id="c"><g fill="#005bbf"><path d="M191.28 330.68c-1.54 0-2.91-.33-3.93-.87-1-.51-2.36-.82-3.86-.82-1.51 0-2.9.32-3.91.83-1.01.53-2.4.86-3.92.86-1.54 0-2.92-.36-3.93-.9-1-.49-2.33-.79-3.79-.79-1.52 0-2.86.29-3.86.81-1.02.54-2.42.88-3.95.88v2.41c1.53 0 2.93-.35 3.95-.88 1-.52 2.34-.82 3.86-.82 1.45 0 2.79.31 3.79.8 1.01.53 2.39.9 3.93.9 1.52 0 2.91-.33 3.92-.86 1.01-.52 2.4-.84 3.91-.84 1.5 0 2.86.32 3.86.83 1.02.54 2.37.87 3.91.87l.02-2.41z"/><path d="M191.28 333.09c-1.54 0-2.91-.33-3.93-.87-1-.51-2.36-.83-3.86-.83-1.51 0-2.9.32-3.91.84-1.01.53-2.4.86-3.92.86-1.54 0-2.92-.37-3.93-.9-1-.49-2.33-.8-3.79-.8-1.52 0-2.86.3-3.86.82-1.02.53-2.42.88-3.95.88v2.41c1.53 0 2.93-.35 3.95-.88 1-.52 2.34-.82 3.86-.82 1.45 0 2.79.31 3.79.8 1.01.54 2.39.9 3.93.9 1.52 0 2.91-.34 3.92-.86 1.01-.52 2.4-.84 3.91-.84 1.5 0 2.86.32 3.86.84 1.02.53 2.37.86 3.91.86l.02-2.41" fill="#ccc"/><path d="M191.28 335.5c-1.54 0-2.91-.33-3.93-.86-1-.52-2.36-.84-3.86-.84-1.51 0-2.9.32-3.91.84-1.01.52-2.4.86-3.92.86-1.54 0-2.92-.36-3.93-.9-1-.49-2.33-.8-3.79-.8-1.52 0-2.86.3-3.86.82-1.02.53-2.42.88-3.95.88v2.4c1.53 0 2.93-.34 3.95-.88 1-.51 2.34-.8 3.86-.8 1.45 0 2.79.3 3.79.79 1.01.54 2.39.89 3.93.89 1.52 0 2.91-.32 3.92-.85 1.01-.52 2.4-.83 3.91-.83 1.5 0 2.86.31 3.86.82 1.02.55 2.37.86 3.91.86l.02-2.4"/><path d="M191.26 340.32c-1.54 0-2.89-.33-3.91-.87-1-.51-2.36-.82-3.86-.82-1.51 0-2.9.31-3.91.83-1.01.52-2.4.86-3.92.86-1.54 0-2.92-.37-3.93-.9-1-.5-2.33-.79-3.79-.79-1.52 0-2.86.29-3.86.81-1.02.53-2.42.88-3.95.88v-2.4c1.53 0 2.93-.36 3.95-.9 1-.51 2.34-.8 3.86-.8 1.45 0 2.79.3 3.79.79 1.01.54 2.39.89 3.93.89 1.52 0 2.91-.32 3.92-.85 1.01-.52 2.4-.83 3.91-.83 1.5 0 2.86.31 3.86.82 1.02.55 2.39.86 3.93.86l-.02 2.42" fill="#ccc"/><path d="M191.26 342.73c-1.54 0-2.89-.33-3.91-.86-1-.52-2.36-.84-3.86-.84-1.51 0-2.9.32-3.91.84-1.01.52-2.4.86-3.92.86-1.54 0-2.92-.37-3.93-.9-1-.5-2.33-.8-3.79-.8-1.52 0-2.86.3-3.86.82-1.02.53-2.42.88-3.95.88v-2.39c1.53 0 2.93-.37 3.95-.9 1-.52 2.34-.81 3.86-.81 1.45 0 2.79.3 3.79.79 1.01.53 2.39.9 3.93.9 1.52 0 2.91-.34 3.92-.86 1.01-.52 2.4-.83 3.91-.83 1.5 0 2.86.31 3.86.82 1.02.54 2.38.87 3.93.87l-.02 2.41z"/></g><g fill="#c8b100"><path d="M166.92 320.78c.05.21.13.4.13.62 0 1.46-1.27 2.63-2.81 2.63h22.94c-1.55 0-2.81-1.17-2.81-2.63 0-.21.04-.41.09-.62-.13.05-.29.06-.44.06h-16.69c-.13 0-.29-.02-.41-.06z" stroke-linejoin="round"/><path d="M167.33 319.27h16.69c.57 0 1.02.35 1.02.78 0 .43-.45.79-1.02.79h-16.69c-.56 0-1.02-.36-1.02-.79 0-.43.46-.78 1.02-.78zM164.27 329.86h22.87v-5.83h-22.87v5.83z"/></g><path d="M167.55 318.32h16.25v-79.63h-16.25v79.63z" fill="#ccc"/><path d="M179.13 238.8v79.46m1.83-79.46v79.46" fill="none"/><g fill="#c8b100"><path d="M164.58 232.37h22.29v-5.84h-22.29v5.84z"/><path d="M166.92 236.26c.14-.06.24-.07.41-.07h16.69c.17 0 .32.03.46.08-.58-.19-.99-.71-.99-1.32 0-.61.45-1.14 1.03-1.33-.14.04-.33.08-.49.08h-16.7c-.17 0-.33-.01-.47-.06l.09.02c.6.18.94.71.94 1.29 0 .56-.38 1.13-.97 1.31z" stroke-linejoin="round"/><path d="M167.33 236.19h16.69c.57 0 1.02.35 1.02.78 0 .44-.45.79-1.02.79h-16.69c-.56 0-1.02-.35-1.02-.79 0-.43.46-.78 1.02-.78zM167.33 232.37h16.7c.57 0 1.03.3 1.03.66 0 .37-.46.67-1.03.67h-16.7c-.56 0-1.02-.3-1.02-.67 0-.36.46-.66 1.02-.66z"/></g></g><g id="d" fill="#ad1519"><path d="M162.48 298.62c-2.26 1.3-3.8 2.64-3.55 3.31.12.61.84 1.07 1.87 1.75 1.62 1.13 2.6 3.14 1.83 4.07 1.34-1.08 2.19-2.69 2.19-4.49 0-1.87-.9-3.56-2.34-4.64z"/><path d="M200.4 268.47c-3.54-1.46-9.57-2.55-16.49-2.78-2.39.02-5.04.25-7.79.7-9.72 1.63-17.13 5.51-16.54 8.67.01.06.04.2.05.26 0 0-3.64-8.21-3.7-8.52-.65-3.51 7.56-7.82 18.35-9.62 3.39-.57 6.69-.79 9.56-.76 6.9 0 12.9.89 16.52 2.23l.04 9.82" stroke-linejoin="round"/><path d="M167.52 278.47c-4.51-.32-7.58-1.53-7.94-3.41-.28-1.5 1.25-3.17 3.97-4.68 1.21.14 2.58.3 4 .3l-.03 7.79M183.83 272.38c2.82.43 4.93 1.13 5.98 1.99l.1.17c.5 1.03-1.97 3.22-6.11 5.67l.03-7.83"/><path d="M157.42 293.83c-.43-1.28 3.97-3.86 10.18-6.14 2.84-1.01 5.18-2.07 8.09-3.35 8.63-3.82 15-8.2 14.22-9.79l-.09-.17c.46.38 1.18 8.24 1.18 8.24.78 1.46-5.05 5.78-13 9.58-2.54 1.22-7.91 3.2-10.44 4.09-4.54 1.57-9.04 4.54-8.63 5.64l-1.51-8.09v-.01z" stroke-linejoin="round"/></g><g stroke-width=".26"><path d="M324.85 220.42s-.74.78-1.28.89c-.53.1-1.21-.49-1.21-.49s-.48.51-1.08.64c-.59.14-1.41-.66-1.41-.66s-.57.8-1.07.99c-.51.18-1.13-.24-1.13-.24s-.23.39-.65.61c-.18.09-.48-.05-.48-.05l-.6-.38-.68-.72-.62-.24s-.28-.91-.31-1.07c-.02-.16-.08-.57-.08-.57-.13-.65.87-1.4 2.3-1.72.82-.19 1.54-.18 2.06-.02.57-.48 1.78-.82 3.2-.82 1.29 0 2.42.27 3.04.7.61-.43 1.74-.7 3.03-.7 1.42 0 2.62.34 3.19.82.53-.16 1.24-.17 2.07.02 1.42.32 2.43 1.07 2.3 1.72 0 0-.06.41-.08.57-.03.16-.32 1.07-.32 1.07l-.62.24-.68.72-.58.38s-.3.14-.48.05c-.43-.21-.66-.61-.66-.61s-.62.42-1.13.24c-.51-.19-1.07-.99-1.07-.99s-.82.8-1.42.66c-.59-.13-1.07-.64-1.07-.64s-.68.59-1.21.49c-.54-.11-1.27-.89-1.27-.89z" fill="#ad1519" stroke-width=".27"/><use xlink:href="#b" x="149.17" width="750" height="500"/></g><use xlink:href="#c" x="149.17" width="750" height="500"/><use xlink:href="#d" transform="matrix(-1 0 0 1 500.57 0)" width="750" height="500"/><g><path d="M249.65 182.72c6.64 0 12.56.99 16.41 2.51 2.2 1 5.16 1.73 8.4 2.17 2.47.33 4.81.39 6.85.24 2.73-.06 6.67.74 10.62 2.48 3.26 1.45 5.99 3.21 7.8 4.91l-1.57 1.4-.45 3.96-4.3 4.92-2.15 1.83-5.09 4.07-2.6.21-.79 2.25-32.91-3.86-33.02 3.86-.79-2.25-2.61-.21-5.08-4.07-2.15-1.83-4.3-4.92-.44-3.96-1.58-1.4c1.82-1.7 4.54-3.46 7.8-4.91 3.95-1.74 7.89-2.54 10.62-2.48 2.04.15 4.38.09 6.85-.24 3.24-.44 6.2-1.17 8.4-2.17 3.86-1.52 9.44-2.51 16.08-2.51z" fill="#ad1519" stroke-width=".26"/><g fill="#c8b100"><path d="M225.34 191.42l1.38 1.11 2.08-3.4c-2.25-1.38-3.8-3.78-3.8-6.51 0-.31.02-.61.06-.91.21-4.34 5.5-7.92 12.2-7.92 3.48 0 6.63.95 8.84 2.48.06-.67.12-1.25.21-1.86-2.43-1.42-5.6-2.28-9.05-2.28-7.71 0-13.74 4.39-14.03 9.57-.03.31-.05.61-.05.92 0 2.76 1.26 5.26 3.26 6.99l-1.1 1.81"/><path d="M225.43 191.46c-2.63-1.97-4.27-4.64-4.27-7.58 0-3.38 2.22-6.4 5.58-8.41-2.07 1.67-3.33 3.83-3.51 6.23-.03.31-.05.61-.05.92 0 2.76 1.26 5.26 3.26 6.99l-1.01 1.85"/><path d="M202.21 194.89c-1.48-1.65-2.38-3.79-2.38-6.12 0-1.41.33-2.75.91-3.95 2.13-4.38 8.82-7.57 16.76-7.57 2.16 0 4.23.23 6.14.67-.42.46-.75.97-1.08 1.48-1.59-.31-3.29-.48-5.06-.48-7.27 0-13.36 2.83-15.12 6.65-.47.97-.73 2.06-.73 3.2 0 2.32 1.09 4.4 2.79 5.82l-2.63 4.3-1.41-1.12 1.81-2.88z"/><path d="M204.9 180.48c-1.91 1.21-3.36 2.69-4.16 4.34-.58 1.2-.91 2.54-.91 3.95 0 2.33.9 4.47 2.38 6.12l-1.6 2.59c-1.53-1.96-2.42-4.26-2.42-6.7 0-4.2 2.67-7.87 6.71-10.3zM250.04 171.27c1.76 0 3.28 1.16 3.64 2.73.23 1.38.38 2.95.41 4.62.01.18-.01.35-.01.52 0 .2.04.41.05.61.06 3.52.56 6.62 1.27 8.52l-5.36 5.14-5.43-5.14c.72-1.9 1.22-5 1.29-8.52 0-.2.04-.41.04-.61 0-.17-.01-.34-.01-.52.03-1.67.18-3.24.41-4.62.36-1.57 1.94-2.73 3.7-2.73z"/><path d="M250.04 172.94c.91 0 1.68.58 1.87 1.39.23 1.31.37 2.8.4 4.38 0 .16-.01.32-.01.48 0 .2.03.39.04.59.05 3.32.53 6.25 1.21 8.05l-3.54 3.35-3.54-3.35c.67-1.8 1.15-4.73 1.21-8.05 0-.2.04-.39.04-.59 0-.16-.01-.32-.01-.48.03-1.58.17-3.07.4-4.38.18-.81 1.02-1.39 1.93-1.39zM274.7 191.42l-1.39 1.11-2.08-3.4c2.26-1.38 3.81-3.78 3.81-6.51 0-.31-.02-.61-.06-.91-.21-4.34-5.5-7.92-12.2-7.92-3.49 0-6.63.95-8.84 2.48-.06-.67-.12-1.25-.22-1.86 2.44-1.42 5.6-2.28 9.06-2.28 7.71 0 13.74 4.39 14.03 9.57.03.31.05.61.05.92 0 2.76-1.27 5.26-3.27 6.99l1.11 1.81"/><path d="M274.61 191.46c2.63-1.97 4.27-4.64 4.27-7.58 0-3.38-2.22-6.4-5.58-8.41 2.07 1.67 3.33 3.83 3.51 6.23.03.31.05.61.05.92 0 2.76-1.27 5.26-3.27 6.99l1.02 1.85"/><path d="M297.83 194.89c1.47-1.65 2.38-3.79 2.38-6.12 0-1.41-.33-2.75-.91-3.95-2.14-4.38-8.82-7.57-16.76-7.57-2.16 0-4.23.23-6.15.67.43.46.76.97 1.09 1.48 1.58-.31 3.29-.48 5.06-.48 7.27 0 13.35 2.83 15.11 6.65.47.97.73 2.06.73 3.2 0 2.32-1.09 4.4-2.79 5.82l2.63 4.3 1.42-1.12-1.81-2.88z"/><path d="M295.14 180.48c1.91 1.21 3.36 2.69 4.16 4.34.58 1.2.91 2.54.91 3.95 0 2.33-.91 4.47-2.38 6.12l1.6 2.59c1.53-1.96 2.41-4.26 2.41-6.7 0-4.2-2.67-7.87-6.7-10.3z"/></g><g fill="#c8b100"><path d="M250.15 226.18c-12.26-.02-23.25-1.47-31.09-3.83-.57-.18-.87-.7-.84-1.25-.01-.52.29-1 .84-1.17 7.84-2.36 18.83-3.81 31.09-3.83 12.27.02 23.25 1.47 31.09 3.83.55.17.84.65.83 1.17.03.55-.27 1.07-.83 1.25-7.84 2.36-18.82 3.81-31.09 3.83"/><path d="M250.07 216.09c-12.41.03-23.55 1.58-31.39 4 .65-.31.59-1.12-.22-3.2-.98-2.53-2.5-2.42-2.5-2.42 8.66-2.56 20.73-4.16 34.16-4.18 13.44.02 25.6 1.62 34.27 4.18 0 0-1.53-.11-2.51 2.42-.81 2.08-.87 2.89-.21 3.2-7.84-2.42-19.19-3.97-31.6-4"/><path d="M250.12 210.3c-13.43.02-25.5 1.62-34.16 4.18-.58.17-1.19-.05-1.38-.6-.19-.55.12-1.18.7-1.35 8.71-2.67 21.08-4.35 34.84-4.38 13.77.03 26.19 1.71 34.9 4.38.58.17.89.8.7 1.35-.19.55-.8.77-1.38.6-8.67-2.56-20.78-4.16-34.22-4.18"/><path d="M250.2 199.78l1.23.22c-.19.5-.24 1.05-.24 1.63 0 2.57 2.21 4.65 4.92 4.65 2.18 0 4.04-1.35 4.67-3.21.08.05.47-1.68.68-1.66.17.02.15 1.8.22 1.77.31 2.34 2.46 3.93 4.87 3.93 2.71 0 4.91-2.08 4.91-4.65 0-.19-.01-.38-.04-.57l1.54-1.52.83 1.94c-.33.61-.46 1.3-.46 2.03 0 2.46 2.1 4.44 4.69 4.44 1.63 0 3.06-.78 3.9-1.97l.99-1.25-.01 1.53c0 1.55.66 2.93 2.16 3.18 0 0 1.73.1 4.03-1.7 2.29-1.8 3.55-3.29 3.55-3.29l.2 1.8s-1.9 2.95-3.97 4.15c-1.14.66-2.86 1.35-4.23 1.13-1.44-.24-2.48-1.4-3.01-2.74-1.03.61-2.25.97-3.55.97-2.81 0-5.33-1.54-6.32-3.86-1.29 1.4-3.09 2.25-5.2 2.25-2.24 0-4.29-1.01-5.57-2.56-1.27 1.16-2.98 1.87-4.88 1.87-2.48 0-4.69-1.22-5.94-3.05-1.25 1.83-3.46 3.05-5.94 3.05-1.89 0-3.61-.71-4.87-1.87-1.28 1.55-3.34 2.56-5.58 2.56-2.11 0-3.9-.85-5.19-2.25-1 2.32-3.52 3.86-6.32 3.86-1.31 0-2.52-.36-3.55-.97-.54 1.34-1.57 2.5-3.02 2.74-1.36.22-3.08-.47-4.22-1.13-2.08-1.2-3.98-4.15-3.98-4.15l.2-1.8s1.27 1.49 3.56 3.29c2.29 1.81 4.02 1.7 4.02 1.7 1.51-.25 2.16-1.63 2.16-3.18l-.01-1.53.99 1.25c.84 1.19 2.28 1.97 3.9 1.97 2.59 0 4.69-1.98 4.69-4.44 0-.73-.13-1.42-.46-2.03l.83-1.94 1.54 1.52c-.02.19-.04.38-.04.57 0 2.57 2.2 4.65 4.91 4.65 2.42 0 4.56-1.59 4.88-3.93.06.03.05-1.75.22-1.77.2-.02.6 1.71.67 1.66.64 1.86 2.49 3.21 4.68 3.21 2.71 0 4.91-2.08 4.91-4.65 0-.58-.03-1.13-.24-1.63l1.29-.22"/></g><g fill="none"><path d="M250.12 224.57c-11.06-.01-21.07-1.29-28.68-3.26 7.61-1.97 17.62-3.17 28.68-3.19 11.07.02 21.13 1.22 28.74 3.19-7.61 1.97-17.67 3.25-28.74 3.26z" fill="#ad1519" stroke-linejoin="round"/><path d="M220.12 221.66c7.75-2.18 18.29-3.52 30-3.54 11.72.02 22.31 1.36 30.06 3.54"/></g></g><g stroke-width=".52"><path d="M250.49 344.33c-13.08 0-26.05-3.2-36.95-8.54-8.03-3.98-13.36-12-13.36-21.19v-33.3H300.6v33.3c0 9.19-5.32 17.21-13.36 21.19-10.9 5.34-23.66 8.54-36.75 8.54z" fill="#ccc"/><g fill="#c8b100"><path d="M250.32 314.57c0 13.16-11.16 23.82-25.05 23.82s-25.15-10.66-25.15-23.82v-33.35h50.2v33.35" fill="#ad1519"/><path d="M200.03 314.12c.15 7.02 2.95 12.25 5.73 15.67v-49.47h-5.66l-.07 33.8zM211.08 334.23c1.57.83 3.72 2.22 6.03 2.77l-.15-56.96h-5.88v54.19zM222.28 338.25c2.3.23 4.01.19 5.87 0v-58.21h-5.87v58.21zM233.32 337c2.3-.46 4.9-1.89 6.03-2.63v-54.33h-5.88l-.15 56.96zM244.81 329.24c2.45-2.18 4.75-7.12 5.59-12.76l.14-36.44h-5.87l.14 49.2z"/></g><path d="M300.65 281.22v33.35c0 13.16-11.28 23.82-25.17 23.82-13.9 0-25.16-10.66-25.16-23.82v-33.35h50.33" fill="#ad1519"/><path id="e" d="M272.71 306.14c.05-.14.12-.27.19-.4l-4.26-4.74-1.67.72-3.06-3.39 1-1.46-5.34-5.99c-.07.02-.2.02-.27.04l.03 4.02 1.75.5v4.46l-1.75.48-.03 4.08c.84.26 1.48.88 1.74 1.67l3.21.01.51-1.67h4.72l.5 1.67zm-6.98-18.5v1.61h2.76v-1.61zm-7.3 20.37c.64 0 1.16-.49 1.16-1.1 0-.61-.52-1.11-1.16-1.11-.65 0-1.17.5-1.17 1.11 0 .61.52 1.1 1.17 1.1zm15.99-9.73l-1.76-.48v-4.46l1.76-.5-.01-1.92c-.85-.25-1.51-.87-1.79-1.67h-2.68l-.51 1.67h-4.71l-.51-1.67h-3.09c-.08.22-.17.42-.29.61l5.38 5.96 1.67-.71 3.06 3.4-1 1.45 4.18 4.64c.09-.04.18-.08.28-.12zm-7.25-1.39l-1.29 1.04 1.77 1.98 1.29-1.05zm8.004 36.186c-1.24-.065-2.255-.902-2.514-2.016-1.67-.23-3.25-.66-4.73-1.3l.84-1.43c1.29.55 2.66.91 4.08 1.11.31-.66.86-1.16 1.58-1.4l.01-5.62-1.76-.49v-4.46l1.76-.48v-7.64c-.07-.02-.13-.05-.2-.09l-3.98 4.42 1 1.44-3.06 3.4-1.67-.71-3.3 3.67c.57.87.55 2-.11 2.85.94 1.05 2.03 1.98 3.24 2.75l-.84 1.44c-1.42-.89-2.7-1.99-3.79-3.22-.87.26-1.86.11-2.6-.5-1.15-.93-1.29-2.56-.3-3.64l.14-.16c-.69-1.56-1.16-3.24-1.32-5l1.71.01c.14 1.5.51 2.93 1.09 4.27.49-.06 1-.01 1.46.16l3.32-3.68-1-1.45 3.06-3.4 1.67.72 3.99-4.43c-.09-.14-.15-.29-.21-.46l-2.76.01-.5 1.67h-4.72l-.51-1.67-3.24-.01c-.27.76-.9 1.36-1.69 1.62l-.01 4.04-1.71-.01v-4.01c-1.1-.33-1.91-1.31-1.91-2.47 0-1.15.82-2.15 1.92-2.48l.01-4.05-1.76-.48v-4.46l1.76-.5v-4.05c-1.08-.35-1.84-1.32-1.84-2.45 0-1.43 1.22-2.58 2.73-2.58 1.22 0 2.25.74 2.61 1.78h3.09l.51-1.67h4.71l.51 1.67h2.68c.357-1.03 1.363-1.767 2.56-1.78l.07 8.37h-.85v2.61h.845l-.02 21.59h-.785v2.61h.78zm-5.914-18.306l-1.29-1.04-1.78 1.98 1.29 1.04zm-9.96-18.44h-1.69l-.01 2.61h1.7zm9.16 11.41v-1.6h-2.85v1.6zm-10.6 9.69l-1.76-.39-.25-4.45 1.75-.58v2.56c0 .99.09 1.92.26 2.86zm1.46-5.52l1.75.41s.09 2.87.05 2.22c-.04-.74.19 2.24.19 2.24l-1.76.58c-.18-.9-.24-1.84-.24-2.79zm10.81 16.93l.39-1.7c-1.52-.48-2.93-1.18-4.17-2.09l-1.26 1.11c1.48 1.15 3.19 2.08 5.04 2.68zm-.85 1.44l-1.3 1.22c-1.47-.54-2.86-1.26-4.12-2.11l.38-1.77c1.5 1.13 3.21 2.03 5.04 2.66z" fill="#c8b100" stroke="#c8b100" stroke-width=".26"/><use xlink:href="#e" transform="matrix(-1 0 0 1 550.43 0)" width="750" height="500"/><g fill="#c8b100" stroke-width=".46"><path d="M200.12 281.25h50.18v-55.72h-50.18v55.72z" fill="#ad1519" stroke-width=".52"/><path d="M217.34 238.41h-.92v-.92h-1.62v3.69h1.62v2.55h-3.47v7.39h1.85v14.79h-3.7v7.63h28.42v-7.63h-3.69v-14.79h1.85v-7.39h-3.47v-2.55h1.62v-3.69h-1.62v.92h-.93v-.92h-1.61v.92h-1.16v-.92h-1.62v3.69h1.62v2.55h-3.46v-8.09h1.84v-3.7h-1.84v.93h-.93v-.93h-1.62v.93h-.92v-.93h-1.85v3.7h1.85v8.09h-3.47v-2.55h1.62v-3.69h-1.62v.92h-.92v-.92h-1.85v.92zm-6.24 35.13h28.42m-28.42-1.85h28.42m-28.42-1.85h28.42m-28.42-1.85h28.42m-28.42-2.08h28.42m-24.72-1.62h21.03m-21.03-1.85h21.03m-21.03-2.08h21.03m-21.03-1.84h21.03m-21.03-1.85h21.03m-21.03-1.85h21.03m-21.03-1.85h21.03m-22.88-1.85h24.73m-24.73-1.85h24.73m-24.73-1.85h24.73m-24.73-1.84h24.73m-21.26-1.85h17.79m-10.63-1.85h3.47m-3.47-1.85h3.47m-3.47-1.85h3.47m-3.47-1.85h3.47m-5.32-2.31h7.16m-12.47 7.86h3.69m-5.31-2.31h6.93m-6.93 33.97v-1.85m0-1.85v-1.85m-1.85 1.85v1.85m3.47 0v-1.85m1.84 3.7v-1.85m0-1.85v-1.85m0-2.08v-1.62m0-1.85v-2.08m-1.84 7.63v-2.08m-3.47 2.08v-2.08m7.16 0v2.08m1.62-2.08v-1.62m-5.31-1.85v1.85m3.69-1.85v1.85m3.47-1.85v1.85m-1.85-1.85v-2.08m1.85-1.84v1.84m0-5.54v1.85m-1.85-3.7v1.85m1.85-3.7v1.85m-3.47-1.85v1.85m-3.69-1.85v1.85m-1.62-3.7v1.85m3.46-1.85v1.85m3.47-1.85v1.85m1.85-3.7v1.85m-3.47-1.85v1.85m-3.69-1.85v1.85m-1.62-3.69v1.84m6.93-1.84v1.84m-3.47-5.54v1.85m15.95-1.85h-3.7m5.32-2.31h-6.94m6.94 33.97v-1.85m0-1.85v-1.85m1.85 1.85v1.85m-3.47 0v-1.85m-1.85 3.7v-1.85m0-1.85v-1.85m0-2.08v-1.62m0-1.85v-2.08m1.85 7.63v-2.08m3.47 2.08v-2.08m-7.17 0v2.08m-1.62-2.08v-1.62m5.32-1.85v1.85m-3.7-1.85v1.85m-3.46-1.85v1.85m1.84-1.85v-2.08m-1.84-1.84v1.84m0-5.54v1.85m1.84-3.7v1.85m-1.84-3.7v1.85m3.46-1.85v1.85m3.7-1.85v1.85m1.62-3.7v1.85m-3.47-1.85v1.85m-3.47-1.85v1.85m-1.84-3.7v1.85m3.46-1.85v1.85m3.7-1.85v1.85m1.62-3.69v1.84m-6.94-1.84v1.84m3.47-5.54v1.85m-7.16 18.71v-2.08m0-5.54v-1.85m0 5.55v-1.85m0-5.55v-1.85m0-1.85v-1.84m0-3.7v-1.85m0-1.85v-1.85m-8.78 4.85h3.69m3.47-5.54h3.47m3.46 5.54h3.7"/><path d="M230.05 273.54v-4.86c0-.92-.46-3.7-4.85-3.7-4.16 0-4.62 2.78-4.62 3.7v4.86h9.47zM221.73 260.83v-5.09c0-1.38-.92-2.54-2.54-2.54s-2.54 1.16-2.54 2.54v5.09h5.08zM228.89 260.83v-5.09c0-1.38.93-2.54 2.55-2.54 1.61 0 2.54 1.16 2.54 2.54v5.09h-5.09z"/></g><g><path d="M250.28 281.25h50.32v-55.72h-50.32v55.72z" fill="#ccc"/><path d="M275.93 239.26l.05-.62.09-.34s-1.61.13-2.46-.11c-.85-.24-1.61-.59-2.4-1.25-.79-.68-1.1-1.1-1.67-1.18-1.36-.22-2.4.4-2.4.4s1.02.37 1.78 1.31c.76.94 1.59 1.41 1.95 1.53.59.18 2.66.05 3.22.07.57.03 1.84.19 1.84.19z" fill="#db4446" stroke-width=".39"/><path d="M283.46 237s.01.72.08 1.4c.06.67-.22 1.24-.11 1.61.11.37.16.66.3.93.14.26.21.94.21.94s-.38-.28-.74-.54c-.35-.27-.6-.44-.6-.44l.1 1.03c.04.31.22.89.51 1.24.29.33.87.89 1.05 1.33.18.45.14 1.44.14 1.44s-.46-.75-.87-.89c-.39-.14-1.26-.62-1.26-.62s.79.79.79 1.55c0 .75-.32 1.6-.32 1.6s-.36-.68-.83-1.12c-.47-.45-1.13-.9-1.13-.9s.52 1.17.52 1.95c0 .79-.15 2.47-.15 2.47s-.39-.64-.79-.96c-.4-.31-.87-.58-1.02-.78-.14-.21.48.64.54 1.16.07.51.32 2.35 1.92 4.69.94 1.37 2.39 3.77 5.5 2.98 3.11-.78 1.96-4.97 1.3-6.92-.65-1.95-.98-4.11-.94-4.87.04-.75.58-2.97.51-3.39-.07-.41-.24-2 .14-3.28.4-1.33.73-1.85.95-2.4.21-.55.39-.86.46-1.34.07-.48.07-1.37.07-1.37s.58 1.06.73 1.44c.14.38.14 1.5.14 1.5s.11-1.12.98-1.67c.87-.55 1.88-1.13 2.13-1.44.25-.31.33-.51.33-.51s-.08 1.92-.62 2.67c-.36.49-1.77 2.09-1.77 2.09s.73-.28 1.23-.3c.51-.04.87 0 .87 0s-.62.48-1.41 1.64c-.8 1.16-.47 1.26-1.05 2.22-.58.96-1.05 1-1.78 1.58-1.08.87-.5 4.34-.36 4.86.15.51 2.03 4.76 2.07 5.79.03 1.03.21 3.33-1.6 4.8-1.16.95-3.07.96-3.51 1.23-.43.28-1.29 1.13-1.29 2.91 0 1.79.64 2.06 1.15 2.51.51.44 1.16.2 1.3.55.15.34.22.54.44.75.21.2.36.44.29.82-.08.38-.91 1.23-1.2 1.85-.29.61-.87 2.23-.87 2.47 0 .24-.07.99.18 1.37 0 0 .91 1.06.29 1.26-.4.14-.78-.25-.97-.2-.54.14-.83.47-.98.45-.36-.07-.36-.25-.4-.76-.03-.51-.01-.72-.17-.72-.22 0-.33.18-.37.45-.04.27-.04.89-.29.89-.25 0-.61-.45-.83-.55-.22-.1-.83-.2-.87-.48-.03-.27.36-.85.76-.96.4-.1.76-.3.51-.51-.26-.2-.51-.2-.76 0-.25.21-.79.04-.76-.27.04-.31.11-.69.07-.86-.03-.17-.47-.51.1-.82.59-.31.84.27 1.42.17s.86-.31 1.08-.65c.22-.34.18-1.06-.22-1.5-.39-.45-.79-.52-.94-.8-.14-.27-.36-.92-.36-.92s.11 1.2.04 1.37c-.07.17-.04.89-.04.89s-.39-.45-.72-.79c-.32-.34-.65-1.37-.65-1.37s-.03.96-.03 1.34c0 .37.43.72.29.86-.15.13-.83-.72-1.02-.86-.18-.14-.76-.58-1.01-1.06-.25-.48-.44-1.16-.51-1.41-.07-.24-.19-1.31-.07-1.58.18-.4.47-1.13.47-1.13h-1.41c-.76 0-1.3-.23-1.59.28-.29.51-.15 1.54.21 2.88.37 1.33.58 1.98.48 2.22-.11.24-.58.79-.76.89-.19.11-.69.07-.91-.03-.21-.1-.57-.27-1.26-.27-.69 0-1.12.03-1.37-.03-.26-.07-.88-.38-1.17-.31-.29.07-.79.32-.65.72.22.61-.21.75-.51.72-.29-.04-.53-.14-.9-.24-.36-.11-.9 0-.83-.42.07-.41.22-.44.4-.74.18-.32.25-.52.04-.54-.25-.02-.51-.05-.7.11-.2.16-.51.51-.76.38-.26-.14-.46-.43-.46-1.08 0-.64-.68-1.2-.05-1.17.62.03 1.41.48 1.55.13.14-.35.06-.51-.28-.78s-.76-.43-.31-.77c.45-.35.56-.35.74-.54.17-.18.41-.79.73-.64.62.3.02.73.65 1.42.62.69 1.01.94 2.06.83 1.04-.11 1.33-.24 1.33-.54 0-.29-.09-.82-.12-1.04-.02-.21.15-.99.15-.99s-.48.3-.63.59c-.13.29-.42.8-.42.8s-.11-.6-.08-1.09c.02-.29.12-.79.11-.89-.03-.27-.23-.94-.23-.94s-.16.73-.28.94c-.11.21-.16 1.07-.16 1.07s-.67-.58-.48-1.55c.13-.75-.12-1.74.11-2.06.22-.33.75-1.64 2.06-1.69 1.3-.05 2.31.05 2.77.03.45-.03 2.06-.33 2.06-.33s-2.97-1.52-3.64-1.98c-.68-.45-1.73-1.63-2.07-2.16-.34-.54-.65-1.58-.65-1.58s-.53.02-1.02.29c-.48.27-.96.67-1.24.99-.28.32-.73 1.05-.73 1.05s.08-.94.08-1.23c0-.29-.06-.86-.06-.86s-.33 1.28-1.01 1.76c-.68.49-1.47 1.15-1.47 1.15s.08-.71.08-.88c0-.16.17-.99.17-.99s-.48.72-1.21.86c-.74.13-1.81.11-1.9.56-.08.45.2 1.07.03 1.39-.17.32-.54.54-.54.54s-.42-.35-.79-.38c-.36-.03-.71.16-.71.16s-.31-.4-.19-.67c.11-.26.67-.66.54-.83-.15-.16-.6.06-.88.19-.28.14-.88.27-.82-.19.05-.45.2-.72.05-1.04-.14-.32-.05-.53.18-.61.22-.08 1.12.02 1.21-.19.08-.21-.22-.48-.82-.61-.59-.14-.88-.49-.57-.78.32-.3.4-.38.54-.64.14-.27.2-.76.74-.51.53.24.42.83.99 1.01.56.19 1.89-.08 2.17-.24.28-.16 1.19-.83 1.5-.99.31-.15 1.61-1.12 1.61-1.12s-.76-.53-1.05-.8c-.28-.27-.78-.91-1.04-1.05-.25-.13-1.5-.61-1.92-.64-.42-.02-1.72-.48-1.72-.48s.59-.19.79-.35c.19-.16.64-.56.87-.53.22.02.28.02.28.02s-1.21-.05-1.47-.13c-.25-.08-.99-.54-1.27-.54s-.84.11-.84.11.76-.48 1.38-.59c.62-.1 1.1-.08 1.1-.08s-.96-.27-1.19-.58c-.22-.33-.45-.8-.62-1.02-.17-.21-.28-.56-.59-.59-.31-.03-.85.38-1.16.35-.31-.03-.54-.22-.57-.67-.02-.46 0-.3-.1-.54-.12-.24-.57-.8-.15-.93.43-.14 1.33.08 1.42-.08.08-.16-.48-.65-.85-.83-.37-.19-.96-.51-.65-.78.31-.26.62-.37.79-.61.17-.24.37-.91.74-.7.36.21.87 1.26 1.16 1.18.28-.08.3-.83.25-1.15-.06-.32 0-.88.28-.83.28.05.51.43.96.46.45.02 1.13-.11 1.07.21-.05.32-.31.71-.62 1.06-.3.36-.45 1.05-.25 1.5.2.46.71 1.19 1.16 1.48.45.29 1.3.51 1.84.85.53.35 1.78 1.34 2.2 1.45.42.11.85.32.85.32s.48-.21 1.13-.21c.65 0 2.14.1 2.71-.14.57-.24 1.3-.64 1.08-1.15-.23-.51-1.47-.96-1.36-1.36.11-.4.57-.43 1.33-.46.76-.02 1.8.14 2-.94.2-1.06.26-1.68-.81-1.92-1.08-.24-1.87-.27-2.07-1.04-.2-.78-.39-.97-.17-1.18.23-.21.62-.32 1.41-.37.8-.06 1.7-.06 1.96-.25.25-.18.3-.69.61-.91.31-.21 1.53-.4 1.53-.4s1.46.71 2.8 1.71c1.21.9 2.3 2.23 2.3 2.23" fill="#ed72aa" stroke-width=".39"/></g><g stroke-width=".61"><path d="M266.69 281.01c0 10.107-7.28 18.3-16.26 18.3s-16.26-8.193-16.26-18.3c0-10.107 7.28-18.3 16.26-18.3s16.26 8.193 16.26 18.3z" fill="#ad1519"/><path d="M261.88 280.97c0 7.412-5.122 13.42-11.44 13.42S239 288.382 239 280.97s5.122-13.42 11.44-13.42 11.44 6.008 11.44 13.42z" fill="#005bbf"/></g></g></g><path d="M23.054 5.83c.095.62.145 1.254.145 1.9 0 6.898-5.605 12.49-12.516 12.49-4.45 0-8.355-2.317-10.575-5.808.918 5.994 6.106 10.586 12.37 10.586 6.91 0 12.513-5.592 12.513-12.49 0-2.456-.71-4.747-1.94-6.68z" opacity=".15"/></svg>